<?xml version="1.0" encoding="utf-8"?>
<!-- Generator: Adobe Illustrator 22.1.0, SVG Export Plug-In . SVG Version: 6.00 Build 0)  -->
<svg version="1.1" id="Layer_1" xmlns="http://www.w3.org/2000/svg" xmlns:xlink="http://www.w3.org/1999/xlink" x="0px" y="0px"
	 viewBox="0 0 1080 1080" style="enable-background:new 0 0 1080 1080;" xml:space="preserve">
<path d="M1072.5,540c0,294.1-238.4,532.5-532.5,532.5S7.5,834.1,7.5,540S245.9,7.5,540,7.5S1072.5,245.9,1072.5,540z M704.3,498.7
	c0-33.6-27-60.9-60.2-60.9c-33.3,0-60.2,27.2-60.2,60.9s27,60.9,60.2,60.9C677.3,559.6,704.3,532.4,704.3,498.7 M601.6,741.6
	l-75.8-0.1V472c0-17.5-7.6-26.7-14-31.3c-9.7-7-20.2-5.3-37.7-5.3h-79.9c-33.1,0-31.1,56.7,2,56.7c9,0,72,0,72,0v247.6l-65.8,1.8
	c-16.2,0-29,12.2-29,27.8c0,16.3,12.8,28.2,28.3,28.2h81.6h11.1h107.8c15.4,0,28.2-11.9,28.2-28.2
	C630.5,753.8,617.7,741.6,601.6,741.6 M686.6,313.6c0-14.7-12.6-26.6-28.2-26.6H396.2c-15.5,0-28.2,11.9-28.2,26.6
	s12.6,26.6,28.2,26.6h262.3C674,340.2,686.6,328.3,686.6,313.6z"/>
</svg>
