<?xml version="1.0" encoding="utf-8"?>
<!-- Generator: Adobe Illustrator 23.0.0, SVG Export Plug-In . SVG Version: 6.00 Build 0)  -->
<svg version="1.1" id="Layer_1" xmlns="http://www.w3.org/2000/svg" xmlns:xlink="http://www.w3.org/1999/xlink" x="0px" y="0px"
	 viewBox="0 0 20 8" style="enable-background:new 0 0 20 8;" xml:space="preserve">
<style type="text/css">
	.st0{fill:#0000FF;}
</style>
<g id="XMLID_2_">
	<path id="XMLID_16_" class="st0" d="M7.8,3.01c-0.7,0-1.32,0.47-1.42,1.24h2.75C9.05,3.53,8.52,3.01,7.8,3.01 M9.56,4.94h-3.2
		c0.1,0.74,0.66,1.33,1.41,1.33c0.51,0,0.85-0.17,1.2-0.53c0.09-0.09,0.18-0.15,0.3-0.15c0.2,0,0.36,0.15,0.36,0.38
		c0,0.1-0.05,0.2-0.11,0.27C9.08,6.73,8.45,7,7.82,7C6.52,7,5.54,6,5.54,4.65c0-1.38,0.98-2.36,2.25-2.36
		c1.22,0,2.15,0.96,2.15,2.27C9.94,4.76,9.8,4.94,9.56,4.94"/>
	<path id="XMLID_13_" class="st0" d="M13.45,3.12c-0.84,0-1.44,0.68-1.44,1.52c0,0.85,0.6,1.53,1.43,1.53
		c0.87,0,1.44-0.68,1.44-1.53C14.88,3.78,14.3,3.12,13.45,3.12 M15.72,6.51c0,0.22-0.18,0.4-0.39,0.4c-0.22,0-0.39-0.18-0.39-0.4
		V6.36c-0.38,0.37-0.89,0.59-1.49,0.59c-1.28,0-2.28-1.01-2.28-2.3c0-1.28,1.02-2.31,2.27-2.31c0.61,0,1.13,0.22,1.5,0.59V2.78
		c0-0.22,0.18-0.4,0.39-0.4c0.22,0,0.38,0.18,0.39,0.4V6.51z"/>
	<path id="XMLID_12_" class="st0" d="M18.73,6.27V0.78c0-0.23-0.1-0.34-0.18-0.4c-0.12-0.09-0.3-0.1-0.48-0.04l-1.1,0.41
		c-0.2,0.07-0.3,0.29-0.23,0.5c0.03,0.1,0.1,0.18,0.2,0.22c0.09,0.04,0.2,0.05,0.3,0.01l0.69-0.25v5.09l0,0.27
		c0,0.23,0.16,0.39,0.4,0.39h0.23v0h0.95c0.2,0,0.36-0.16,0.36-0.37c0-0.2-0.16-0.36-0.37-0.36H18.73L18.73,6.27z"/>
	<path id="XMLID_6_" class="st0" d="M4.39,3.21c0-0.43-0.34-0.77-0.76-0.77c-0.42,0-0.76,0.35-0.76,0.77c0,0.43,0.34,0.77,0.76,0.77
		C4.05,3.98,4.39,3.64,4.39,3.21"/>
	<path id="XMLID_5_" class="st0" d="M3.09,6.29l-0.96,0V2.88c0-0.22-0.1-0.34-0.18-0.4C1.83,2.39,1.69,2.41,1.47,2.41H0.46
		c-0.42,0-0.39,0.72,0.02,0.72c0.11,0,0.91,0,0.91,0v3.14L0.57,6.29c-0.2,0-0.37,0.15-0.37,0.35C0.2,6.85,0.36,7,0.56,7h1.03h0.14
		H3.1c0.2,0,0.36-0.15,0.36-0.36C3.45,6.44,3.29,6.29,3.09,6.29"/>
	<g id="XMLID_3_">
		<path id="XMLID_4_" class="st0" d="M3.81,1.21H0.49c-0.2,0-0.36-0.15-0.36-0.34s0.16-0.34,0.36-0.34h3.32
			c0.2,0,0.36,0.15,0.36,0.34S4,1.21,3.81,1.21z"/>
	</g>
</g>
</svg>
